<svg width="16" height="16" viewBox="0 0 16 16" fill="none" xmlns="http://www.w3.org/2000/svg">
<path d="M5.5 3C4.67 3 4 3.67 4 4.5V6H3.5C2.67 6 2 6.67 2 7.5V12C2 12.55 2.45 13 3 13H6C6.55 13 7 12.55 7 12V7.5C7 6.67 6.33 6 5.5 6H5V4.5C5 4.22 5.22 4 5.5 4H6.5C6.78 4 7 4.22 7 4.5V6C7.37 6 7.72 6.1 8 6.27C8.28 6.1 8.63 6 9 6V4.5C9 4.22 9.22 4 9.5 4H10.5C10.78 4 11 4.22 11 4.5V6H10.5C9.67 6 9 6.67 9 7.5V12C9 12.55 9.45 13 10 13H13C13.55 13 14 12.55 14 12V7.5C14 6.67 13.33 6 12.5 6H12V4.5C12 3.67 11.33 3 10.5 3H5.5ZM3.5 7H5.5C5.78 7 6 7.22 6 7.5V9H3V7.5C3 7.22 3.22 7 3.5 7ZM10.5 7H12.5C12.78 7 13 7.22 13 7.5V9H10V7.5C10 7.22 10.22 7 10.5 7ZM3 10H6V12H3V10ZM10 10H13V12H10V10Z" fill="#C5C5C5"/>
</svg>
